<?xml version="1.0" encoding="UTF-8" standalone="no"?>
<svg width="60px" height="60px" viewBox="0 0 60 60" version="1.1" xmlns="http://www.w3.org/2000/svg" xmlns:xlink="http://www.w3.org/1999/xlink" xmlns:sketch="http://www.bohemiancoding.com/sketch/ns">
    <!-- Generator: Sketch 3.2.2 (9983) - http://www.bohemiancoding.com/sketch -->
    <title>Car</title>
    <desc>Created with Sketch.</desc>
    <defs></defs>
    <g id="stroked" stroke="none" stroke-width="1" fill="none" fill-rule="evenodd" sketch:type="MSPage">
        <g id="Transport" sketch:type="MSLayerGroup" transform="translate(-479.000000, -478.000000)" stroke="#ffffff" stroke-width="2" stroke-linejoin="round">
            <g id="Car" transform="translate(480.000000, 504.000000)" sketch:type="MSShapeGroup">
                <g id="Oval-1513-+-Oval-1513-+-Rectangle-1743" transform="translate(0.000000, 11.000000)" stroke-linecap="round">
                    <path d="M51,14 L58,14 L58,8 L55.9291419,8 L55.9291419,8 C55.9758387,7.67339702 56,7.33952134 56,7 C56,3.14187327 52.8670097,0 49.0022704,0 L5,0 L5,8 L0,8 L0,14 L7,14 L7,14 C7,11.2385763 9.23857625,9 12,9 C14.7614237,9 17,11.2385763 17,14 L41,14 C41,11.2385763 43.2385763,9 46,9 C48.7614237,9 51,11.2385763 51,14 Z" id="Rectangle-1743"></path>
                </g>
                <circle id="Oval-1514" stroke-linecap="round" cx="46" cy="25" r="5"></circle>
                <circle id="Oval-1515" stroke-linecap="round" cx="46" cy="25" r="1"></circle>
                <circle id="Oval-1516" stroke-linecap="round" cx="12" cy="25" r="1"></circle>
                <circle id="Oval-1514" stroke-linecap="round" cx="12" cy="25" r="5"></circle>
                <path d="M8,0 L36,0 L41,11 L8,11 L8,0 Z" id="Rectangle-1745" stroke-linecap="round"></path>
                <path d="M16,0 L16,11.0453606" id="Line" stroke-linecap="square"></path>
            </g>
        </g>
    </g>
</svg>