<?xml version="1.0" encoding="UTF-8" standalone="no"?>
<svg width="60px" height="60px" viewBox="0 0 60 60" version="1.1" xmlns="http://www.w3.org/2000/svg" xmlns:xlink="http://www.w3.org/1999/xlink" xmlns:sketch="http://www.bohemiancoding.com/sketch/ns">
    <!-- Generator: Sketch 3.2.2 (9983) - http://www.bohemiancoding.com/sketch -->
    <title>Pinonmap</title>
    <desc>Created with Sketch.</desc>
    <defs></defs>
    <g id="stroked" stroke="none" stroke-width="1" fill="none" fill-rule="evenodd" sketch:type="MSPage">
        <g id="Transport" sketch:type="MSLayerGroup" transform="translate(-479.000000, -118.000000)" stroke="#ffffff" stroke-width="2" stroke-linecap="round" stroke-linejoin="round">
            <g id="Pinonmap" transform="translate(487.000000, 120.000000)" sketch:type="MSShapeGroup">
                <path d="M0,23 L14,25.2173913 L14,57 L0,54.7826087 L0,23 Z" id="Rectangle-1679"></path>
                <path d="M28,23 L42,25.2173913 L42,57 L28,54.7826087 L28,23 Z" id="Rectangle-1679"></path>
                <path d="M14,23 L28,25.2173913 L28,57 L14,54.7826087 L14,23 Z" id="Rectangle-1679" transform="translate(21.000000, 40.000000) scale(-1, 1) translate(-21.000000, -40.000000) "></path>
                <path d="M22,19.8767586 C22,19.8767586 30,12.418278 30,8 C30,3.581722 26.418278,0 22,0 C17.581722,0 14,3.581722 14,8 C14,12.418278 22,19.8767586 22,19.8767586 Z" id="Oval-1466"></path>
                <circle id="Oval-1467" cx="22" cy="6" r="2"></circle>
            </g>
        </g>
    </g>
</svg>